Patient5_TMGait_0pt45_1_right_03_EMG.mot
version=1
nRows=13
nColumns=33
inDegrees=no
endheader
time	1LAddLong	2LGlutMax	3LGlutMed	4LIliopsoas	5LSemiMemb	6LBicFemLong	7LRecFem	8LTensFascLat	9LVastMed	10LVasLat	11LGasMed	12lGasLat	13LTibAnt	14LPeroneusLong	15LSol	16LTibPost	17RAddLong	18RGlutMax	19RGlutMed	20RIliopsoas	21RSemiMemb	22RBicFemLong	23RRecFem	24RTensFascLat	25RVastMed	26RVasLat	27RGasMed	28RGasLat	29RTibAnt	30RPeroneusLong	31RSol	32RTibPost
5.635	0.068512	-0.007172	-0.002594	0.006409	0.20309	0.002289	-0.010986	-0.11337	-0.082245	0.024261	-0.15213	-0.037079	0.001373	0.02594	0.059052	0.1178	-0.007019	-0.000763	0.019073	-0.058289	0.029602	-0.007935	0.00473	0.022125	-0.038605	-0.013733	-0.002136	0.00412	0.049133	0.015411	-0.011902	0.024567
5.636	0.05249	-0.009613	0.071869	0.000305	0.13092	0.009918	-0.005646	-0.025024	-0.10452	0.070496	0.077209	-0.019684	0.007019	0.006409	0.062256	-0.032654	-0.010529	-0.001831	0.055084	0.063934	0.063324	-0.005646	0.006714	0.009766	-0.04364	-0.016479	-0.00412	0.033569	0.045166	0.031281	-0.015717	0.014191
5.637	0.054932	-0.016022	0.059814	0.005035	0.096436	0.038147	0.000305	-0.12115	-0.11169	0.078735	0.26657	0.015411	0.019379	-0.022125	0.080261	0.084991	-0.007172	-0.005341	0.000763	0.000153	0.049133	-0.007629	0.005341	0.019989	-0.036621	-0.009918	-0.005188	-0.016632	0.008698	0.02121	-0.011597	0.026855
5.638	0.046387	-0.022888	0.075531	-0.00351	0.032959	0.061646	-0.001068	-0.12573	-0.095673	0.054779	0.11658	0.023499	0.007477	-0.03006	0.056	-0.075684	-0.00824	-0.002289	-0.021515	-0.019531	0.028076	0.001526	0.009766	-0.004425	-0.038452	-0.006561	0.000305	-0.099487	0.007172	0.011292	-0.011749	0.018768
5.639	0.046692	-0.035858	0.1181	-0.011444	-0.10071	0.084839	0.007782	0.097046	-0.065155	0.005646	0.10956	0.032654	-0.006561	-0.014343	-0.013885	-0.13153	-0.019531	0.003357	-0.083008	0.19791	0.018616	-0.006866	0.01236	0.002289	-0.034943	-0.016327	0.00061	-0.091858	0.025024	0.005188	-0.016479	0.012207
5.64	0.036926	-0.031738	0.19928	-0.011444	-0.18509	0.068665	0.005035	0.21454	-0.031738	-0.016327	0.10056	0.005646	-0.00824	0.010834	-0.089264	0.009003	-0.01236	-0.004272	-0.039368	-0.010223	-0.003052	-0.001373	0.009003	-0.003662	-0.040741	-0.00946	0.00824	-0.020752	0.021973	0.007782	-0.01709	0.002136
5.641	0.05127	-0.028229	0.11444	-0.006561	-0.14557	0.055542	0.011444	0.056305	-0.018005	-0.038147	0.045624	-0.018768	-0.005951	0.015411	-0.088654	-0.093231	-0.008545	-0.000305	-0.007172	-0.081635	-0.007324	-0.002136	0.011749	-0.022736	-0.044098	-0.012512	0.011444	0.06485	0.01709	0.003052	-0.018158	-0.01236
5.642	0.030823	-0.014801	0.032501	-0.001373	0.006409	0.077209	0.015259	-0.053558	-0.010681	-0.054016	0.030823	-0.037079	-0.00885	0.006256	-0.098267	-0.082703	-0.030823	0.000916	0.02243	0.1033	-0.023193	0.000458	0.012512	-0.036163	-0.051727	-0.000458	0.011444	0.11368	0.00885	-0.00061	-0.01297	0.00061
5.643	0.026245	0.000763	-0.083771	-0.014038	0.081177	0.085754	0.015106	-0.17593	0.001221	-0.04303	0.003662	-0.022736	-0.003662	-0.002747	-0.090179	0.001984	-0.019226	-0.005188	0.042267	-0.047302	-0.021667	0.01236	0.019379	-0.05127	-0.041809	-0.00351	0.003204	-0.000305	0.013885	0.004425	-0.009308	0.001678
5.644	0.025177	0.005951	-0.18249	-0.019989	0.10635	0.068512	0.016022	-0.31525	0.016174	-0.041962	0.022888	-0.019989	-0.009918	-0.002136	-0.061035	-0.096893	-0.006409	-0.01236	0.068207	-0.000305	0.003815	0.004883	0.012054	-0.070496	-0.04715	-0.001068	-0.022125	-0.010529	0.010529	0.004425	-0.00885	-0.001526
5.645	0.016022	0.007019	-0.20874	-0.010376	0.14267	0.040436	0.0177	-0.2829	0.057373	-0.041809	0.059052	-0.060577	-0.005035	-0.005493	-0.032043	-0.075378	0.00351	-0.008392	0.027161	-0.062408	0.002899	0.003357	0.014801	-0.052185	-0.05127	-0.00412	-0.017395	-0.021515	0.011292	0.007019	0.007782	-0.00061
5.646	0.021057	0.020905	-0.18921	0.002747	0.14587	0.055237	0.01297	-0.28275	0.10254	-0.010681	0.038757	-0.021362	-0.003815	0.003662	-0.014954	-0.10895	0.023804	-0.00824	0.041809	-0.1239	0.005951	0.009155	0.011292	-0.05661	-0.044403	0.001526	-0.007935	-0.032959	0.00885	-0.001984	0.007172	-0.001831
5.647	0.02655	0.027161	-0.10803	0.056152	0.054932	0.037994	0.007629	-0.17166	0.11002	-0.015106	0.012207	-0.029602	0	0.005798	-0.0354	-0.023041	0.013123	-0.005341	0.011292	0.11276	0.005035	0.005035	0.010376	-0.041809	-0.04776	-0.003357	-0.002136	-0.037994	0.008545	0.001526	-0.001526	-0.000763
